<?xml version="1.0" encoding="UTF-8"?>
<svg xmlns="http://www.w3.org/2000/svg" xmlns:xlink="http://www.w3.org/1999/xlink" width="226.772pt" height="226.772pt" viewBox="0 0 226.772 226.772">
<path fill-rule="nonzero" fill="#0091b3" fill-opacity="1" d="M 143.632812 130.089844 C 153.957031 106.242188 157.644531 78.710938 157.644531 66.171875 C 157.644531 51.914062 151.746094 45.277344 146.089844 45.03125 C 139.945312 45.03125 133.308594 52.40625 132.324219 66.417969 C 130.601562 91.246094 133.796875 114.847656 141.417969 133.039062 L 142.15625 133.777344 Z M 97.167969 170.160156 C 109.460938 170.160156 120.277344 164.75 129.621094 153.933594 C 127.160156 149.753906 124.949219 145.332031 122.980469 140.660156 C 121.507812 136.726562 120.03125 132.792969 118.800781 128.859375 C 111.429688 109.929688 98.644531 103.292969 87.582031 103.292969 C 85.863281 103.292969 84.140625 103.539062 82.417969 103.785156 C 71.847656 105.75 59.558594 114.601562 59.558594 133.285156 C 59.558594 166.472656 86.105469 170.160156 97.414062 170.160156 Z M 154.941406 153.6875 C 162.804688 162.539062 172.640625 168.191406 184.195312 170.40625 L 180.507812 190.5625 C 165.757812 187.859375 152.972656 180.976562 142.648438 170.40625 C 129.863281 183.679688 114.625 190.5625 97.414062 190.5625 C 62.015625 190.5625 39.152344 168.191406 39.152344 133.285156 C 39.152344 107.964844 55.132812 88.050781 78.730469 83.625 C 90.285156 81.414062 102.332031 83.625 112.65625 89.527344 C 112.164062 79.691406 112.410156 71.089844 112.902344 64.695312 C 113.640625 52.652344 117.574219 42.328125 123.964844 34.953125 C 130.355469 27.820312 139.207031 23.890625 148.054688 24.136719 C 163.296875 24.625 179.523438 37.902344 179.523438 65.925781 C 179.523438 83.132812 174.605469 113.125 163.542969 138.203125 C 161.085938 143.855469 158.382812 149.015625 155.429688 153.933594 Z M 154.941406 153.6875 "/>
</svg>
